<svg width="22" height="22" viewBox="0 0 22 22" fill="none" xmlns="http://www.w3.org/2000/svg">
<path d="M20.6259 11.2139C20.6259 10.4225 20.5604 9.84497 20.4186 9.24609H11.1974V12.818H16.61C16.501 13.7057 15.9117 15.0425 14.6021 15.9408L14.5838 16.0603L17.4993 18.2738L17.7013 18.2936C19.5565 16.6145 20.6259 14.1441 20.6259 11.2139Z" fill="#4285F4"/>
<path d="M11.1968 20.625C13.8485 20.625 16.0747 19.7694 17.7007 18.2936L14.6015 15.9408C13.7722 16.5076 12.659 16.9033 11.1968 16.9033C8.59958 16.9033 6.39524 15.2243 5.60945 12.9036L5.49427 12.9131L2.46262 15.2125L2.42297 15.3205C4.03803 18.4647 7.35548 20.625 11.1968 20.625Z" fill="#34A853"/>
<path d="M5.61006 12.9036C5.40272 12.3047 5.28273 11.663 5.28273 11C5.28273 10.3369 5.40272 9.69524 5.59915 9.09636L5.59366 8.96881L2.524 6.63257L2.42357 6.67938C1.75792 7.98412 1.37598 9.44929 1.37598 11C1.37598 12.5507 1.75792 14.0158 2.42357 15.3205L5.61006 12.9036Z" fill="#FBBC05"/>
<path d="M11.1968 5.09664C13.041 5.09664 14.2851 5.87733 14.9944 6.52974L17.7662 3.8775C16.0639 2.32681 13.8486 1.375 11.1968 1.375C7.35551 1.375 4.03804 3.53526 2.42297 6.6794L5.59856 9.09638C6.39526 6.77569 8.59961 5.09664 11.1968 5.09664Z" fill="#EB4335"/>
</svg>
