<svg width="17" height="17" viewBox="0 0 17 17" fill="none" xmlns="http://www.w3.org/2000/svg">
<path d="M12.4168 5.74995C12.4168 5.32343 12.2541 4.89691 11.9286 4.57149C11.6032 4.24605 11.1767 4.08333 10.7501 4.08333M10.7501 10.75C13.5116 10.75 15.7501 8.51142 15.7501 5.75C15.7501 2.98858 13.5116 0.75 10.7501 0.75C7.98871 0.75 5.75013 2.98858 5.75013 5.75C5.75013 5.97807 5.7654 6.20256 5.79497 6.42253C5.84361 6.78432 5.86793 6.96521 5.85156 7.07966C5.83451 7.19888 5.8128 7.26312 5.75404 7.36825C5.69763 7.46917 5.59822 7.56857 5.39941 7.76739L1.14065 12.0261C0.996528 12.1703 0.924464 12.2423 0.87293 12.3264C0.827239 12.401 0.793569 12.4823 0.773155 12.5673C0.75013 12.6632 0.75013 12.7651 0.75013 12.969V14.4167C0.75013 14.8834 0.75013 15.1167 0.840958 15.295C0.920852 15.4518 1.04834 15.5793 1.20514 15.6592C1.3834 15.75 1.61675 15.75 2.08346 15.75H4.08346V14.0833H5.75013V12.4167H7.4168L8.73274 11.1007C8.93156 10.9019 9.03096 10.8025 9.13188 10.7461C9.23701 10.6873 9.30125 10.6656 9.42047 10.6486C9.53492 10.6322 9.71581 10.6565 10.0776 10.7052C10.2976 10.7347 10.5221 10.75 10.7501 10.75Z" stroke="#737373" stroke-width="1.5" stroke-linecap="round" stroke-linejoin="round"/>
</svg>
