<svg width="76" height="76" viewBox="0 0 76 76" fill="none" xmlns="http://www.w3.org/2000/svg">
<rect x="0.5" y="0.5" width="75" height="75" rx="37.5" stroke="#E5E5E5"/>
<g filter="url(#filter0_dd_9_1079)">
<rect x="16" y="16" width="44" height="44" rx="22" fill="#234146"/>
<rect x="16" y="16" width="44" height="44" rx="22" fill="url(#paint0_linear_9_1079)"/>
<rect x="16.5" y="16.5" width="43" height="43" rx="21.5" stroke="#1F5157"/>
<path d="M43.8333 32.1667H32.1667C31.2462 32.1667 30.5 32.9129 30.5 33.8334V42.1667C30.5 43.0872 31.2462 43.8334 32.1667 43.8334H43.8333C44.7538 43.8334 45.5 43.0872 45.5 42.1667V33.8334C45.5 32.9129 44.7538 32.1667 43.8333 32.1667Z" stroke="white" stroke-width="1.5" stroke-linecap="round" stroke-linejoin="round"/>
<path d="M30.5 33.8335L38 38.8335L45.5 33.8335" stroke="white" stroke-width="1.5" stroke-linecap="round" stroke-linejoin="round"/>
</g>
<defs>
<filter id="filter0_dd_9_1079" x="13" y="15" width="50" height="52" filterUnits="userSpaceOnUse" color-interpolation-filters="sRGB">
<feFlood flood-opacity="0" result="BackgroundImageFix"/>
<feColorMatrix in="SourceAlpha" type="matrix" values="0 0 0 0 0 0 0 0 0 0 0 0 0 0 0 0 0 0 127 0" result="hardAlpha"/>
<feMorphology radius="1" operator="dilate" in="SourceAlpha" result="effect1_dropShadow_9_1079"/>
<feOffset/>
<feComposite in2="hardAlpha" operator="out"/>
<feColorMatrix type="matrix" values="0 0 0 0 0.898039 0 0 0 0 0.898039 0 0 0 0 0.898039 0 0 0 1 0"/>
<feBlend mode="normal" in2="BackgroundImageFix" result="effect1_dropShadow_9_1079"/>
<feColorMatrix in="SourceAlpha" type="matrix" values="0 0 0 0 0 0 0 0 0 0 0 0 0 0 0 0 0 0 127 0" result="hardAlpha"/>
<feMorphology radius="5" operator="erode" in="SourceAlpha" result="effect2_dropShadow_9_1079"/>
<feOffset dy="4"/>
<feGaussianBlur stdDeviation="4"/>
<feComposite in2="hardAlpha" operator="out"/>
<feColorMatrix type="matrix" values="0 0 0 0 0 0 0 0 0 0 0 0 0 0 0 0 0 0 0.15 0"/>
<feBlend mode="normal" in2="effect1_dropShadow_9_1079" result="effect2_dropShadow_9_1079"/>
<feBlend mode="normal" in="SourceGraphic" in2="effect2_dropShadow_9_1079" result="shape"/>
</filter>
<linearGradient id="paint0_linear_9_1079" x1="38" y1="16" x2="38" y2="60" gradientUnits="userSpaceOnUse">
<stop stop-color="white" stop-opacity="0.24"/>
<stop offset="1" stop-color="white" stop-opacity="0"/>
</linearGradient>
</defs>
</svg>
